# xmcd
#
# Track frame offsets:
#	150
#	17993
#	39065
#	52010
#	68148
#	80533
#	103004
#	118764
#	137848
#	169415
#	191498
#	206641
#
# Disc length: 3186 seconds
#
# Revision: 1
# Processed by: cddbd v1.5.2PL0 Copyright (c) Steve Scherf et al.
# Submitted via: audiograbber 1.83.01
#
DISCID=aa0c700c
DTITLE=Taylor Hicks - Early Works
DYEAR=1900
DGENRE=
TTITLE0=Soul Thing
TTITLE1=The Fall
TTITLE2=Hold On To Your Love
TTITLE3=The Deal
TTITLE4=Heart And Soul
TTITLE5=In Your Time
TTITLE6=West Texas Sky
TTITLE7=Somehow
TTITLE8=Tighten Up
TTITLE9=Son Of A Carpenter
TTITLE10=My Friend
TTITLE11=Georgia
EXTD=
EXTT0=
EXTT1=
EXTT2=
EXTT3=
EXTT4=
EXTT5=
EXTT6=
EXTT7=
EXTT8=
EXTT9=
EXTT10=
EXTT11=
PLAYORDER=
